{"glyphs":{"0":{"ha":681,"x_min":0,"x_max":0,"o":"m 340 1064 b 635 524 592 1064 635 708 b 340 -17 635 339 592 -17 b 46 524 89 -17 46 339 b 340 1064 46 708 89 1064 m 340 875 b 247 524 238 875 247 592 b 340 172 247 456 238 172 b 433 524 443 172 433 456 b 340 875 433 592 443 875 "},"1":{"ha":681,"x_min":0,"x_max":0,"o":"m 454 1047 l 454 0 l 253 0 l 253 867 l 153 867 l 153 1047 "},"2":{"ha":681,"x_min":0,"x_max":0,"o":"m 72 683 l 69 740 b 343 1065 69 935 125 1065 b 625 797 517 1065 625 978 b 539 513 625 690 588 606 l 364 181 l 607 181 l 607 0 l 57 0 l 293 433 b 428 790 347 533 428 675 b 344 919 428 844 411 919 b 261 750 265 919 261 807 l 264 683 "},"3":{"ha":681,"x_min":0,"x_max":0,"o":"m 242 246 b 319 164 242 211 264 164 b 410 313 404 164 410 250 b 253 458 410 429 369 463 l 253 639 b 411 776 365 639 411 661 b 340 883 411 824 401 883 b 271 775 281 883 271 821 l 271 754 l 92 754 b 336 1064 83 922 143 1064 b 601 790 506 1064 601 956 b 472 543 601 690 574 583 l 472 540 b 633 292 589 511 633 404 b 324 -17 633 100 515 -17 b 49 275 147 -17 40 100 l 243 275 "},"4":{"ha":681,"x_min":0,"x_max":0,"o":"m 544 1047 l 544 411 l 629 411 l 629 253 l 544 253 l 544 0 l 343 0 l 343 253 l 39 253 l 39 408 l 317 1047 m 343 808 l 340 808 l 185 411 l 343 411 "},"5":{"ha":681,"x_min":0,"x_max":0,"o":"m 185 1047 l 585 1047 l 585 867 l 329 867 l 301 697 b 614 351 514 686 614 557 b 269 -17 614 128 501 -17 b 68 31 196 -17 133 -1 l 103 213 b 231 164 139 183 183 164 b 393 354 340 164 393 256 b 182 540 393 485 304 540 b 103 532 156 540 128 536 "},"6":{"ha":681,"x_min":0,"x_max":0,"o":"m 486 1047 l 286 639 l 289 636 b 419 693 328 671 364 693 b 631 368 578 693 631 494 b 338 -17 631 181 557 -17 b 51 351 129 -17 51 168 b 200 869 51 542 121 701 l 286 1047 m 346 510 b 253 329 268 510 253 382 b 340 160 253 279 271 160 b 429 346 419 160 429 293 b 346 510 429 397 417 510 "},"7":{"ha":681,"x_min":0,"x_max":0,"o":"m 667 1047 l 272 0 l 57 0 l 383 867 l 101 867 l 101 1047 "},"8":{"ha":681,"x_min":0,"x_max":0,"o":"m 222 567 b 79 788 128 599 79 689 b 342 1064 79 942 182 1064 b 603 788 500 1064 603 942 b 460 565 603 689 556 600 l 460 564 b 642 286 590 522 642 418 b 342 -17 642 114 517 -17 b 40 286 167 -17 40 114 b 222 564 40 421 92 521 m 281 792 b 338 672 281 751 286 672 b 401 790 401 672 401 751 b 338 901 401 828 394 901 b 281 792 288 901 281 829 m 339 464 b 253 313 268 464 253 367 b 340 164 253 258 268 164 b 429 313 411 164 429 261 b 339 464 429 364 407 464 "},"9":{"ha":681,"x_min":0,"x_max":0,"o":"m 196 0 l 396 410 l 393 413 b 263 354 354 378 318 354 b 51 681 104 354 51 556 b 344 1064 51 868 125 1064 b 631 696 554 1064 631 881 b 482 179 631 507 561 346 l 396 0 m 342 885 b 253 701 263 885 253 754 b 336 538 253 651 265 538 b 429 719 415 538 429 667 b 342 885 429 769 413 886 "}," ":{"ha":340,"x_min":0,"x_max":0,"o":""},"!":{"ha":342,"x_min":0,"x_max":0,"o":"m 274 314 l 69 314 l 69 1047 l 274 1047 m 171 247 b 303 115 243 247 303 188 b 171 -17 303 43 243 -17 b 39 115 99 -17 39 43 b 171 247 39 188 99 247 "},"\"":{"ha":500,"x_min":0,"x_max":0,"o":"m 301 643 l 281 1047 l 474 1047 l 453 643 m 47 643 l 26 1047 l 219 1047 l 199 643 "},"#":{"ha":681,"x_min":0,"x_max":0,"o":"m 611 331 l 492 331 l 451 0 l 336 0 l 375 331 l 272 331 l 232 0 l 115 0 l 154 331 l 36 331 l 36 469 l 172 469 l 188 600 l 71 600 l 71 739 l 203 739 l 240 1047 l 356 1047 l 319 739 l 424 739 l 460 1047 l 576 1047 l 539 739 l 644 739 l 644 600 l 522 600 l 507 469 l 611 469 m 304 600 l 289 469 l 390 469 l 407 600 "},"$":{"ha":681,"x_min":0,"x_max":0,"o":"m 290 1154 l 392 1154 l 392 1056 b 615 933 482 1042 558 1007 l 501 808 b 342 889 458 857 408 889 b 224 779 271 889 224 853 b 333 657 224 708 275 681 b 656 314 497 590 656 522 b 392 -17 656 151 554 14 l 392 -136 l 290 -136 l 290 -17 b 29 106 190 -3 100 32 l 126 260 b 332 150 186 203 244 150 b 458 286 406 150 458 208 b 331 432 458 369 394 401 b 26 760 178 501 26 567 b 290 1056 26 928 129 1029 "},"%":{"ha":1192,"x_min":0,"x_max":0,"o":"m 918 1047 l 422 0 l 274 0 l 769 1047 m 271 1057 b 489 756 444 1057 489 900 b 271 454 489 611 444 454 b 53 756 97 454 53 611 b 271 1057 53 900 97 1057 m 271 899 b 219 756 221 899 219 788 b 271 613 219 726 222 613 b 322 756 319 613 322 725 b 271 899 322 786 319 899 m 919 593 b 1138 292 1093 593 1138 436 b 919 -10 1138 147 1093 -10 b 701 292 746 -10 701 147 b 919 593 701 436 746 593 m 919 435 b 868 292 869 435 868 324 b 919 149 868 263 871 149 b 971 292 968 149 971 261 b 919 435 971 322 968 435 "},"&":{"ha":819,"x_min":0,"x_max":0,"o":"m 338 690 b 410 801 379 713 410 753 b 357 858 410 832 390 858 b 293 796 321 858 293 833 b 338 690 293 756 318 724 m 288 413 b 238 310 258 390 238 346 b 353 174 238 235 286 174 b 425 203 383 174 401 182 m 518 61 b 326 -14 467 17 394 -14 b 36 296 156 -14 36 132 b 188 572 36 417 94 501 b 114 789 150 638 114 713 b 358 1018 114 929 222 1018 b 599 810 482 1018 599 944 b 431 526 599 690 515 599 l 569 311 b 674 425 604 349 643 383 l 783 276 b 676 174 751 238 715 204 l 668 167 l 778 0 l 558 0 "},"’":{"ha":419,"x_min":0,"x_max":0,"o":"m 383 1047 l 175 622 l 36 622 l 175 1047 "},"(":{"ha":417,"x_min":0,"x_max":0,"o":"m 392 1025 b 253 428 301 838 253 633 b 392 -149 253 228 304 35 l 213 -189 b 58 432 111 7 58 215 b 213 1064 58 643 110 874 "},")":{"ha":417,"x_min":0,"x_max":0,"o":"m 25 -150 b 164 447 115 38 164 242 b 25 1024 164 647 113 840 l 204 1064 b 358 443 306 868 358 660 b 204 -189 358 232 307 1 "},"*":{"ha":522,"x_min":0,"x_max":0,"o":"m 308 1047 l 308 882 l 446 969 l 490 892 l 344 811 l 490 729 l 446 650 l 308 740 l 308 569 l 219 569 l 219 740 l 76 650 l 32 729 l 176 811 l 32 892 l 76 969 l 219 882 l 219 1047 "},"+":{"ha":681,"x_min":0,"x_max":0,"o":"m 264 693 l 417 693 l 417 432 l 653 432 l 653 279 l 417 279 l 417 10 l 264 10 l 264 279 l 29 279 l 29 432 l 264 432 "},",":{"ha":340,"x_min":0,"x_max":0,"o":"m 303 225 l 93 -200 l -46 -200 l 93 225 "},"-":{"ha":442,"x_min":0,"x_max":0,"o":"m 394 551 l 394 367 l 47 367 l 47 551 "},".":{"ha":340,"x_min":0,"x_max":0,"o":"m 169 247 b 301 115 243 247 301 188 b 169 -17 301 43 243 -17 b 38 115 96 -17 38 43 b 169 247 38 188 96 247 "},"/":{"ha":760,"x_min":0,"x_max":0,"o":"m 747 1121 l 201 -231 l 43 -231 l 589 1121 "},":":{"ha":340,"x_min":0,"x_max":0,"o":"m 169 247 b 301 115 243 247 301 188 b 169 -17 301 43 243 -17 b 38 115 96 -17 38 43 b 169 247 38 188 96 247 m 169 715 b 301 583 243 715 301 656 b 169 451 301 511 243 451 b 38 583 96 451 38 511 b 169 715 38 656 96 715 "},";":{"ha":340,"x_min":0,"x_max":0,"o":"m 301 225 l 93 -200 l -46 -200 l 93 225 m 171 715 b 303 583 244 715 303 656 b 171 451 303 511 244 451 b 39 583 97 451 39 511 b 171 715 39 656 97 715 "},"<":{"ha":681,"x_min":0,"x_max":0,"o":"m 653 131 l 653 -24 l 28 289 l 28 426 l 653 742 l 653 588 l 194 356 "},"=":{"ha":681,"x_min":0,"x_max":0,"o":"m 653 414 l 29 414 l 29 567 l 653 567 m 653 143 l 29 143 l 29 296 l 653 296 "},">":{"ha":681,"x_min":0,"x_max":0,"o":"m 486 356 l 29 588 l 29 742 l 653 426 l 653 289 l 29 -24 l 29 131 "},"?":{"ha":631,"x_min":0,"x_max":0,"o":"m 232 758 l 36 758 b 303 1064 29 935 117 1064 b 594 751 488 1064 594 929 b 425 464 594 638 547 496 l 425 328 l 218 328 l 218 586 b 253 582 231 583 242 582 b 374 747 347 582 374 672 b 300 883 374 792 364 883 b 232 783 249 883 232 826 m 192 115 b 322 247 192 188 251 247 b 456 115 396 247 456 188 b 322 -17 456 43 396 -17 b 192 115 251 -17 192 43 "},"@":{"ha":1157,"x_min":0,"x_max":0,"o":"m 700 518 b 586 675 707 601 674 682 b 429 500 500 668 435 589 b 528 350 424 410 469 358 b 700 518 632 335 693 440 m 763 793 l 899 793 l 825 368 b 996 592 806 279 992 396 b 600 963 1003 821 835 963 b 161 529 343 963 161 779 b 624 85 161 250 350 85 b 908 213 733 85 829 140 l 1042 213 b 613 -17 939 71 790 -17 b 53 529 269 -17 53 206 b 604 1064 53 731 183 1064 b 1104 631 889 1064 1104 886 b 743 217 1104 300 814 217 b 685 303 708 217 674 250 l 682 306 b 511 222 622 250 568 222 b 276 475 364 222 276 335 b 571 803 276 643 392 803 b 747 719 644 803 706 779 "},"A":{"ha":733,"x_min":0,"x_max":0,"o":"m 472 1047 l 724 0 l 503 0 l 464 176 l 254 176 l 217 0 l 11 0 l 254 1047 m 381 619 l 357 778 l 354 778 l 332 619 l 288 340 l 433 340 "},"B":{"ha":665,"x_min":0,"x_max":0,"o":"m 413 318 b 281 457 413 400 363 460 l 281 174 b 413 318 364 169 413 231 m 74 0 l 74 1047 l 276 1047 b 493 990 357 1047 426 1044 b 600 754 563 935 600 842 b 488 538 600 661 565 590 b 617 294 574 496 617 385 b 275 0 617 88 464 0 m 404 750 b 281 874 404 826 360 878 l 281 618 b 404 750 358 618 404 671 "},"C":{"ha":628,"x_min":0,"x_max":0,"o":"m 596 850 b 518 861 569 857 544 861 b 257 535 336 861 257 696 b 517 188 257 379 336 188 b 596 203 543 188 569 194 l 596 7 b 500 -11 565 -6 533 -11 b 36 533 201 -11 36 258 b 490 1060 36 793 208 1060 b 596 1040 526 1060 561 1053 "},"D":{"ha":736,"x_min":0,"x_max":0,"o":"m 74 0 l 74 1047 l 231 1047 b 700 515 267 1047 700 1100 b 258 0 700 217 585 0 m 281 186 b 493 517 447 178 493 386 b 281 861 493 650 451 861 l 281 186 "},"E":{"ha":544,"x_min":0,"x_max":0,"o":"m 490 1047 l 490 853 l 281 853 l 281 625 l 465 625 l 465 431 l 281 431 l 281 194 l 493 194 l 493 0 l 74 0 l 74 1047 "},"F":{"ha":547,"x_min":0,"x_max":0,"o":"m 492 1047 l 492 853 l 281 853 l 281 629 l 471 629 l 471 435 l 281 435 l 281 0 l 74 0 l 74 1047 "},"G":{"ha":782,"x_min":0,"x_max":0,"o":"m 746 583 l 746 501 b 410 -17 746 279 692 -17 b 36 518 128 -17 36 286 b 410 1064 36 760 114 1064 b 718 815 569 1064 674 964 l 517 738 b 411 872 507 790 490 872 b 257 524 271 881 257 622 b 417 175 257 415 264 175 b 539 389 522 175 539 317 l 407 389 l 407 583 "},"H":{"ha":771,"x_min":0,"x_max":0,"o":"m 281 1047 l 281 638 l 490 638 l 490 1047 l 697 1047 l 697 0 l 490 0 l 490 443 l 281 443 l 281 0 l 74 0 l 74 1047 "},"I":{"ha":354,"x_min":0,"x_max":0,"o":"m 281 1047 l 281 0 l 74 0 l 74 1047 "},"J":{"ha":489,"x_min":0,"x_max":0,"o":"m 422 339 b 172 -17 422 253 432 -17 b 17 15 121 -17 61 -8 l 17 222 b 125 164 42 189 82 164 b 215 339 222 164 215 269 l 215 1047 l 422 1047 "},"K":{"ha":713,"x_min":0,"x_max":0,"o":"m 281 1047 l 281 579 l 283 579 l 456 1047 l 667 1047 l 474 564 l 692 0 l 474 0 l 283 533 l 281 533 l 281 0 l 74 0 l 74 1047 "},"L":{"ha":518,"x_min":0,"x_max":0,"o":"m 281 1047 l 281 194 l 497 194 l 497 0 l 74 0 l 74 1047 "},"M":{"ha":1003,"x_min":0,"x_max":0,"o":"m 396 1047 l 497 429 l 500 429 l 583 1047 l 861 1047 l 971 0 l 758 0 l 708 754 l 706 754 l 672 496 l 583 0 l 424 0 l 322 501 l 288 735 l 288 754 l 285 754 l 254 0 l 32 0 l 124 1047 "},"N":{"ha":796,"x_min":0,"x_max":0,"o":"m 272 1047 l 531 415 l 533 418 b 517 576 521 468 517 522 l 517 1047 l 724 1047 l 724 0 l 528 0 l 272 632 l 269 629 l 279 524 l 281 481 l 281 0 l 74 0 l 74 1047 "},"O":{"ha":808,"x_min":0,"x_max":0,"o":"m 404 1064 b 772 524 589 1064 772 917 b 404 -17 772 131 589 -17 b 36 524 219 -17 36 131 b 404 1064 36 917 219 1064 m 257 524 b 404 175 257 440 267 175 b 551 524 542 175 551 440 b 404 872 551 617 542 872 b 257 524 267 872 257 617 "},"P":{"ha":676,"x_min":0,"x_max":0,"o":"m 74 0 l 74 1047 l 289 1047 b 644 738 333 1047 644 1075 b 326 429 644 542 518 429 l 281 432 l 281 0 m 281 600 b 438 740 381 596 438 633 b 319 876 438 815 408 876 l 281 876 "},"Q":{"ha":808,"x_min":0,"x_max":0,"o":"m 532 322 b 551 524 549 382 551 444 b 404 872 551 617 542 872 b 257 524 267 872 257 617 b 404 175 257 440 267 175 b 454 193 424 175 438 181 l 331 322 l 438 426 m 785 63 l 676 -40 l 596 47 b 404 -17 540 4 478 -17 b 36 524 219 -17 36 131 b 404 1064 36 917 219 1064 b 772 524 589 1064 772 917 b 694 154 772 400 757 258 "},"R":{"ha":736,"x_min":0,"x_max":0,"o":"m 74 0 l 74 1047 l 282 1047 b 650 747 414 1047 650 1033 b 501 476 650 632 604 533 l 683 0 l 465 0 l 283 483 l 281 483 l 281 0 m 281 597 l 317 596 b 449 746 411 596 449 660 b 308 876 449 821 413 882 l 281 876 "},"S":{"ha":611,"x_min":0,"x_max":0,"o":"m 504 811 b 354 878 463 847 411 878 b 250 775 290 878 250 839 b 565 310 250 603 565 593 b 264 -17 565 124 458 -17 b 86 36 206 -17 133 1 l 86 233 b 243 178 135 200 182 178 b 363 292 310 178 363 222 b 240 444 363 372 299 403 b 47 756 121 525 47 603 b 321 1064 47 921 143 1064 b 504 1013 388 1064 447 1046 "},"T":{"ha":575,"x_min":0,"x_max":0,"o":"m 554 1047 l 554 853 l 390 853 l 390 0 l 183 0 l 183 853 l 21 853 l 21 1047 "},"U":{"ha":756,"x_min":0,"x_max":0,"o":"m 275 1047 l 275 369 b 378 171 275 290 265 171 b 481 325 479 171 479 247 l 481 1047 l 688 1047 l 688 283 b 376 -17 688 172 675 -17 b 68 269 183 -17 68 74 l 68 1047 "},"V":{"ha":785,"x_min":0,"x_max":0,"o":"m 233 1047 l 358 544 b 396 365 376 485 383 425 l 399 365 b 431 547 410 426 414 486 l 557 1047 l 774 1047 l 483 0 l 314 0 l 11 1047 "},"W":{"ha":1101,"x_min":0,"x_max":0,"o":"m 222 1047 l 311 547 b 333 325 324 474 326 399 l 336 325 b 367 547 346 399 351 474 l 471 1047 l 635 1047 l 768 325 l 771 325 b 792 544 778 399 779 471 l 874 1047 l 1090 1047 l 874 0 l 694 0 l 588 553 b 558 744 581 617 568 681 l 556 744 b 522 553 544 681 538 617 l 403 0 l 222 0 l 11 1047 "},"X":{"ha":757,"x_min":0,"x_max":0,"o":"m 264 1047 l 324 901 b 374 742 342 850 363 796 l 376 742 b 424 901 388 796 404 849 l 486 1047 l 710 1047 l 486 540 l 726 0 l 486 0 l 419 167 b 374 324 400 219 388 271 l 371 324 b 325 167 356 271 343 219 l 264 0 l 31 0 l 253 540 l 31 1047 "},"Y":{"ha":714,"x_min":0,"x_max":0,"o":"m 233 1047 l 342 763 l 357 711 l 360 711 l 383 789 l 476 1047 l 708 1047 l 464 501 l 464 0 l 257 0 l 257 501 l 6 1047 "},"Z":{"ha":706,"x_min":0,"x_max":0,"o":"m 685 1047 l 326 194 l 656 194 l 656 0 l 25 0 l 374 853 l 69 853 l 69 1047 "},"[":{"ha":444,"x_min":0,"x_max":0,"o":"m 422 1047 l 422 911 l 254 911 l 254 -36 l 425 -36 l 425 -172 l 74 -172 l 74 1047 "},"\\":{"ha":347,"x_min":0,"x_max":0,"o":"m -19 1121 l 526 -231 l 368 -231 l -178 1121 "},"]":{"ha":444,"x_min":0,"x_max":0,"o":"m 371 1047 l 371 -172 l 19 -172 l 19 -36 l 190 -36 l 190 911 l 22 911 l 22 1047 "},"^":{"ha":681,"x_min":0,"x_max":0,"o":"m 29 524 l 257 1047 l 424 1047 l 653 524 l 514 458 l 340 863 l 168 458 "},"_":{"ha":694,"x_min":0,"x_max":0,"o":"m 694 -104 l 694 -174 l 0 -174 l 0 -104 "},"‘":{"ha":419,"x_min":0,"x_max":0,"o":"m 36 622 l 244 1047 l 383 1047 l 244 622 "},"a":{"ha":601,"x_min":0,"x_max":0,"o":"m 304 165 b 372 354 367 165 372 317 b 301 542 372 393 368 542 b 232 354 236 542 232 394 b 304 165 232 310 235 165 m 358 79 l 356 79 b 226 -14 329 26 289 -14 b 36 351 68 -14 36 239 b 224 715 36 472 60 715 b 356 615 289 715 333 672 l 358 615 l 358 701 l 554 701 l 554 0 l 358 0 "},"b":{"ha":601,"x_min":0,"x_max":0,"o":"m 49 1121 l 244 1121 l 244 615 l 247 615 b 378 715 269 672 314 715 b 565 351 543 715 565 472 b 376 -14 565 239 536 -14 b 247 79 313 -14 272 26 l 244 79 l 244 0 l 49 0 m 299 165 b 369 354 365 165 369 310 b 300 542 369 394 364 542 b 231 354 233 542 231 393 b 299 165 231 317 235 165 "},"c":{"ha":438,"x_min":0,"x_max":0,"o":"m 406 11 b 293 -14 369 -6 333 -14 b 36 346 103 -14 36 186 b 308 715 36 522 106 715 b 406 694 343 715 374 708 l 406 522 b 349 544 388 539 372 544 b 232 357 253 544 232 429 b 346 169 232 282 247 169 b 406 190 368 169 388 178 "},"d":{"ha":601,"x_min":0,"x_max":0,"o":"m 358 79 l 356 79 b 226 -14 329 26 289 -14 b 36 351 68 -14 36 239 b 224 715 36 472 60 715 b 356 615 289 715 333 672 l 358 615 l 358 1121 l 554 1121 l 554 0 l 358 0 m 304 165 b 372 354 367 165 372 317 b 301 542 372 393 368 542 b 232 354 236 542 232 394 b 304 165 232 310 235 165 "},"e":{"ha":575,"x_min":0,"x_max":0,"o":"m 369 436 b 299 565 369 482 360 565 b 226 440 239 565 226 485 l 226 419 l 369 419 m 535 299 l 225 299 b 299 136 226 247 224 136 b 361 217 349 136 361 175 l 528 217 b 306 -14 511 88 449 -14 b 36 336 107 -14 36 163 b 301 715 36 504 97 715 b 539 379 431 715 550 600 "},"f":{"ha":415,"x_min":0,"x_max":0,"o":"m 99 701 l 99 899 b 300 1135 99 1031 125 1135 b 385 1118 329 1135 357 1128 l 385 929 b 350 940 372 936 364 940 b 294 826 288 940 294 869 l 294 701 l 385 701 l 385 540 l 294 540 l 294 0 l 99 0 l 99 540 l 26 540 l 26 701 "},"g":{"ha":607,"x_min":0,"x_max":0,"o":"m 306 165 b 372 354 368 165 372 317 b 303 542 372 393 369 542 b 232 354 236 542 232 394 b 306 165 232 310 235 165 m 217 -93 b 288 -193 219 -137 232 -193 b 363 -1 375 -193 363 -61 l 363 88 l 360 88 b 233 -14 333 36 301 -14 b 82 103 161 -14 113 43 b 36 340 47 172 36 263 b 225 715 36 463 58 715 b 360 617 290 715 338 672 l 363 617 l 363 701 l 558 701 l 558 -61 b 296 -349 558 -267 467 -349 b 43 -93 129 -349 53 -253 "},"h":{"ha":589,"x_min":0,"x_max":0,"o":"m 244 1121 l 244 593 l 247 593 b 410 715 274 660 333 715 b 542 453 554 715 542 554 l 542 0 l 346 0 l 346 385 b 297 518 346 421 360 518 b 244 438 253 518 244 472 l 244 0 l 49 0 l 49 1121 "},"i":{"ha":290,"x_min":0,"x_max":0,"o":"m 243 701 l 243 0 l 47 0 l 47 701 m 144 785 b 21 911 76 785 21 842 b 149 1035 21 982 78 1035 b 269 908 217 1035 269 975 b 144 785 269 842 213 785 "},"j":{"ha":290,"x_min":0,"x_max":0,"o":"m 243 701 l 243 -346 l 47 -346 l 47 701 m 144 785 b 21 911 76 785 21 842 b 149 1035 21 982 78 1035 b 269 908 217 1035 269 975 b 144 785 269 842 213 785 "},"k":{"ha":611,"x_min":0,"x_max":0,"o":"m 244 1121 l 244 456 l 247 456 l 354 701 l 567 701 l 408 415 l 601 0 l 386 0 l 247 325 l 244 325 l 244 0 l 49 0 l 49 1121 "},"l":{"ha":292,"x_min":0,"x_max":0,"o":"m 244 1121 l 244 0 l 49 0 l 49 1121 "},"m":{"ha":888,"x_min":0,"x_max":0,"o":"m 246 589 l 249 589 b 421 715 282 657 338 715 b 542 596 493 715 532 660 l 544 596 b 713 715 576 658 638 715 b 839 485 839 715 839 575 l 839 0 l 643 0 l 643 381 b 594 519 643 417 653 519 b 542 440 549 519 542 472 l 542 0 l 346 0 l 346 393 b 300 517 346 428 356 517 b 244 436 251 517 244 472 l 244 0 l 49 0 l 49 701 l 244 701 "},"n":{"ha":589,"x_min":0,"x_max":0,"o":"m 244 593 l 247 593 b 410 715 274 660 333 715 b 542 453 554 715 542 554 l 542 0 l 346 0 l 346 385 b 297 518 346 421 360 518 b 244 438 253 518 244 472 l 244 0 l 49 0 l 49 701 l 244 701 "},"o":{"ha":606,"x_min":0,"x_max":0,"o":"m 303 715 b 569 350 513 715 569 529 b 303 -14 569 171 513 -14 b 36 350 93 -14 36 171 b 303 715 36 529 93 715 m 303 539 b 232 350 235 539 232 390 b 303 161 232 310 235 161 b 374 350 371 161 374 310 b 303 539 374 390 371 539 "},"p":{"ha":601,"x_min":0,"x_max":0,"o":"m 299 165 b 369 354 368 165 369 310 b 300 542 369 394 364 542 b 231 354 233 542 231 393 b 299 165 231 317 235 165 m 244 615 l 247 615 b 378 715 269 672 314 715 b 565 351 543 715 565 472 b 376 -14 565 239 536 -14 b 247 79 313 -14 272 26 l 244 79 l 244 -346 l 49 -346 l 49 701 l 244 701 "},"q":{"ha":601,"x_min":0,"x_max":0,"o":"m 554 -346 l 358 -346 l 358 79 l 356 79 b 226 -14 329 26 289 -14 b 36 351 68 -14 36 239 b 224 715 36 472 60 715 b 356 615 289 715 333 672 l 358 615 l 358 701 l 554 701 m 304 165 b 372 354 367 165 372 317 b 301 542 372 393 368 542 b 232 354 236 542 232 394 b 304 165 232 310 235 165 "},"r":{"ha":438,"x_min":0,"x_max":0,"o":"m 244 701 l 244 617 l 247 617 b 407 728 283 678 331 721 l 407 538 b 376 540 397 539 388 540 b 244 350 246 540 244 454 l 244 0 l 49 0 l 49 701 "},"s":{"ha":522,"x_min":0,"x_max":0,"o":"m 401 513 b 307 558 374 538 347 558 b 254 507 272 558 254 538 b 478 232 257 425 478 442 b 253 -14 478 93 397 -14 b 42 67 178 -14 100 18 l 128 206 b 225 160 157 181 186 160 b 282 218 256 160 282 182 b 58 510 285 311 58 288 b 293 715 58 643 169 715 b 481 656 364 715 424 697 "},"t":{"ha":428,"x_min":0,"x_max":0,"o":"m 306 896 l 306 701 l 386 701 l 386 540 l 306 540 l 306 0 l 110 0 l 110 540 l 42 540 l 42 701 l 110 701 l 110 896 "},"u":{"ha":588,"x_min":0,"x_max":0,"o":"m 244 701 l 244 317 b 294 169 244 278 229 169 b 343 274 347 169 343 239 l 344 701 l 539 701 l 539 254 b 289 -14 539 92 463 -14 b 49 281 67 -14 49 153 l 49 701 "},"v":{"ha":628,"x_min":0,"x_max":0,"o":"m 215 701 l 308 317 l 310 306 l 313 306 l 328 378 l 404 701 l 607 701 l 404 0 l 222 0 l 21 701 "},"w":{"ha":964,"x_min":0,"x_max":0,"o":"m 211 701 l 306 290 l 308 290 l 400 701 l 568 701 l 657 290 l 660 290 l 674 365 l 757 701 l 943 701 l 749 0 l 588 0 l 524 238 l 482 440 l 479 440 l 439 217 l 383 0 l 219 0 l 21 701 "},"x":{"ha":679,"x_min":0,"x_max":0,"o":"m 261 701 l 317 594 l 338 551 l 417 701 l 619 701 l 440 378 l 647 0 l 440 0 l 338 193 l 233 0 l 32 0 l 233 378 l 58 701 "},"y":{"ha":628,"x_min":0,"x_max":0,"o":"m 218 701 l 292 418 l 315 301 l 318 301 l 410 701 l 607 701 l 306 -346 l 113 -346 l 225 14 l 21 701 "},"z":{"ha":557,"x_min":0,"x_max":0,"o":"m 525 701 l 308 163 l 501 163 l 501 0 l 32 0 l 254 539 l 54 539 l 54 701 "},"{":{"ha":417,"x_min":0,"x_max":0,"o":"m 331 -172 b 129 43 164 -172 129 -101 l 129 235 b 25 382 129 319 106 382 l 25 488 b 129 635 106 488 129 561 l 129 860 b 300 1047 129 986 174 1047 l 421 1047 l 421 942 b 310 803 328 942 310 883 l 310 619 b 196 438 310 518 290 460 l 196 435 b 310 238 294 418 310 329 l 310 72 b 421 -67 310 -1 328 -67 l 421 -172 "},"|":{"ha":347,"x_min":0,"x_max":0,"o":"m 250 1092 l 250 -297 l 97 -297 l 97 1092 "},"}":{"ha":417,"x_min":0,"x_max":0,"o":"m -4 -172 l -4 -67 b 107 72 89 -67 107 -1 l 107 238 b 221 435 107 329 122 418 l 221 438 b 107 619 126 460 107 518 l 107 803 b -4 942 107 883 89 942 l -4 1047 l 117 1047 b 288 860 243 1047 288 986 l 288 635 b 392 488 288 561 311 488 l 392 382 b 288 235 311 382 288 319 l 288 43 b 86 -172 288 -101 253 -172 "},"~":{"ha":681,"x_min":0,"x_max":0,"o":"m 653 397 b 474 235 610 322 565 235 b 215 326 390 235 260 326 b 108 213 158 326 133 260 l 29 315 b 214 488 68 394 124 488 b 474 396 304 488 415 396 b 575 499 525 396 549 457 "},"¡":{"ha":342,"x_min":0,"x_max":0,"o":"m 68 -346 l 68 388 l 272 388 l 272 -346 m 171 719 b 303 588 243 719 303 660 b 171 456 303 515 243 456 b 39 588 99 456 39 515 b 171 719 39 660 99 719 "},"¢":{"ha":681,"x_min":0,"x_max":0,"o":"m 297 161 b 104 499 151 206 104 361 b 297 882 104 643 140 831 l 297 978 l 388 978 l 388 890 b 469 871 415 888 443 882 l 469 694 b 418 715 454 706 438 715 b 307 514 328 715 307 582 b 411 340 307 449 325 340 b 469 358 433 340 450 347 l 469 182 b 388 157 443 169 415 163 l 388 71 l 297 71 "},"£":{"ha":681,"x_min":0,"x_max":0,"o":"m 61 157 b 144 389 122 219 147 303 l 15 389 l 15 496 l 135 496 b 101 747 128 581 101 661 b 397 1056 101 929 211 1056 b 667 743 599 1056 669 926 l 489 743 l 490 765 b 410 885 490 818 475 885 b 304 753 331 885 304 813 b 335 496 304 667 332 582 l 511 496 l 511 389 l 331 389 b 265 169 325 313 304 236 l 294 171 b 508 143 367 171 435 143 b 660 178 561 143 614 154 l 660 14 b 539 -15 624 -7 581 -15 b 211 25 426 -15 322 25 b 61 0 156 25 113 17 "},"⁄":{"ha":231,"x_min":0,"x_max":0,"o":"m 425 1047 l -74 0 l -194 0 l 306 1047 "},"¥":{"ha":681,"x_min":0,"x_max":0,"o":"m 515 650 l 619 650 l 619 558 l 474 558 l 449 501 l 449 442 l 619 442 l 619 350 l 449 350 l 449 0 l 239 0 l 239 350 l 67 350 l 67 442 l 239 442 l 239 501 l 213 558 l 67 558 l 67 650 l 171 650 l -11 1047 l 217 1047 l 325 707 l 340 656 l 343 656 l 460 1047 l 692 1047 "},"ƒ":{"ha":681,"x_min":0,"x_max":0,"o":"m 653 894 b 594 911 635 904 615 911 b 485 736 494 911 497 811 l 478 693 l 632 693 l 632 561 l 460 561 l 393 151 b 308 -160 376 53 354 -72 b 133 -257 275 -224 201 -257 b 13 -240 92 -257 53 -250 l 36 -87 b 153 -75 71 -114 131 -119 b 185 36 171 -42 178 -3 l 275 561 l 121 561 l 121 693 l 296 693 l 318 801 b 565 1060 344 939 406 1060 b 674 1040 601 1060 639 1050 b 683 1038 676 1039 681 1039 "},"§":{"ha":682,"x_min":0,"x_max":0,"o":"m 378 283 b 460 388 426 300 460 338 b 315 538 460 469 375 503 l 283 556 b 221 456 243 532 221 500 b 363 293 221 368 296 332 m 261 -4 b 354 -104 261 -62 282 -104 b 421 -11 401 -104 421 -61 b 282 154 421 79 353 111 b 42 432 164 225 46 278 b 151 633 42 508 76 582 b 68 814 100 672 68 742 b 333 1064 71 990 194 1064 b 606 803 501 1064 606 974 l 606 774 l 421 774 l 421 806 b 331 915 421 864 399 915 b 250 829 274 915 250 879 b 419 665 267 736 350 703 b 639 408 538 603 635 560 b 511 189 643 314 597 238 b 615 -24 582 142 615 60 b 353 -253 615 -175 493 -253 b 71 -12 201 -253 71 -175 l 71 14 l 261 14 "},"¤":{"ha":681,"x_min":0,"x_max":0,"o":"m 64 251 b 15 429 32 311 15 358 b 64 608 15 497 31 551 l 6 667 l 111 778 l 169 718 b 340 771 219 749 283 771 b 517 718 401 771 464 751 l 576 778 l 676 667 l 619 608 b 669 431 653 553 669 497 b 619 251 669 368 654 303 l 676 190 l 576 81 l 517 140 b 346 88 464 108 407 88 b 169 140 283 88 222 106 l 111 81 l 6 190 m 343 607 b 179 431 251 607 179 521 b 343 251 179 340 251 251 b 506 431 436 251 506 340 b 343 607 506 521 436 607 "},"'":{"ha":347,"x_min":0,"x_max":0,"o":"m 99 643 l 78 1047 l 271 1047 l 250 643 "},"“":{"ha":682,"x_min":0,"x_max":0,"o":"m 299 622 l 507 1047 l 646 1047 l 507 622 m 36 622 l 244 1047 l 383 1047 l 244 622 "},"«":{"ha":601,"x_min":0,"x_max":0,"o":"m 421 458 l 564 196 l 457 136 l 276 458 l 457 783 l 564 729 m 182 458 l 324 196 l 218 136 l 36 458 l 218 783 l 324 729 "},"‹":{"ha":361,"x_min":0,"x_max":0,"o":"m 217 783 l 324 724 l 181 461 l 324 190 l 217 136 l 36 461 "},"›":{"ha":361,"x_min":0,"x_max":0,"o":"m 325 461 l 144 136 l 38 190 l 181 461 l 38 724 l 144 783 "},"ﬁ":{"ha":743,"x_min":0,"x_max":0,"o":"m 99 701 l 99 899 b 300 1135 99 1031 125 1135 b 385 1118 329 1135 357 1128 l 385 929 b 350 940 372 936 364 940 b 294 826 288 940 294 869 l 294 701 l 385 701 l 385 540 l 294 540 l 294 0 l 99 0 l 99 540 l 26 540 l 26 701 m 669 701 l 669 0 l 474 0 l 474 701 m 571 785 b 447 911 503 785 447 842 b 575 1035 447 982 504 1035 b 696 908 643 1035 696 975 b 571 785 696 842 639 785 "},"ﬂ":{"ha":743,"x_min":0,"x_max":0,"o":"m 669 1121 l 669 0 l 474 0 l 474 1121 m 99 701 l 99 899 b 300 1135 99 1031 125 1135 b 385 1118 329 1135 357 1128 l 385 929 b 350 940 372 936 364 940 b 294 826 288 940 294 869 l 294 701 l 385 701 l 385 540 l 294 540 l 294 0 l 99 0 l 99 540 l 26 540 l 26 701 "},"–":{"ha":694,"x_min":0,"x_max":0,"o":"m 694 551 l 694 367 l 0 367 l 0 551 "},"†":{"ha":682,"x_min":0,"x_max":0,"o":"m 436 1047 l 436 713 l 614 713 l 614 535 l 436 535 l 436 -228 l 246 -228 l 246 535 l 69 535 l 69 713 l 246 713 l 246 1047 "},"‡":{"ha":681,"x_min":0,"x_max":0,"o":"m 435 1047 l 435 747 l 611 747 l 611 569 l 435 569 l 435 331 l 611 331 l 611 153 l 435 153 l 435 -228 l 244 -228 l 244 153 l 69 153 l 69 331 l 244 331 l 244 569 l 69 569 l 69 747 l 244 747 l 244 1047 "},"·":{"ha":340,"x_min":0,"x_max":0,"o":"m 169 488 b 301 356 243 488 301 428 b 169 224 301 283 243 224 b 38 356 96 224 38 283 b 169 488 38 428 96 488 "},"¶":{"ha":833,"x_min":0,"x_max":0,"o":"m 515 883 l 421 883 l 421 -156 l 257 -156 l 257 563 b 39 800 113 563 39 661 b 317 1047 39 988 143 1047 l 738 1047 l 738 883 l 679 883 l 679 -156 l 515 -156 "},"•":{"ha":583,"x_min":0,"x_max":0,"o":"m 290 776 b 553 517 435 776 553 660 b 290 253 553 371 435 253 b 29 517 144 253 29 371 b 290 776 29 660 144 776 "},"‚":{"ha":421,"x_min":0,"x_max":0,"o":"m 385 225 l 175 -200 l 36 -200 l 175 225 "},"„":{"ha":682,"x_min":0,"x_max":0,"o":"m 383 225 l 175 -200 l 36 -200 l 175 225 m 646 225 l 438 -200 l 299 -200 l 438 225 "},"”":{"ha":682,"x_min":0,"x_max":0,"o":"m 383 1047 l 175 622 l 36 622 l 175 1047 m 646 1047 l 438 622 l 299 622 l 438 1047 "},"»":{"ha":601,"x_min":0,"x_max":0,"o":"m 325 458 l 143 136 l 38 196 l 179 458 l 38 729 l 143 783 m 565 458 l 383 136 l 278 196 l 419 458 l 278 729 l 383 783 "},"…":{"ha":1389,"x_min":0,"x_max":0,"o":"m 232 -17 b 100 115 158 -17 100 43 b 232 247 100 188 158 247 b 364 115 306 247 364 188 b 232 -17 364 43 306 -17 m 694 -17 b 563 115 621 -17 563 43 b 694 247 563 188 621 247 b 826 115 768 247 826 188 b 694 -17 826 43 768 -17 m 1157 -17 b 1025 115 1083 -17 1025 43 b 1157 247 1025 188 1083 247 b 1289 115 1231 247 1289 188 b 1157 -17 1289 43 1231 -17 "},"‰":{"ha":1714,"x_min":0,"x_max":0,"o":"m 274 0 l 769 1047 l 918 1047 l 422 0 m 271 1057 b 489 756 444 1057 489 900 b 271 454 489 611 444 454 b 53 756 97 454 53 611 b 271 1057 53 900 97 1057 m 271 899 b 219 756 221 899 219 788 b 271 613 219 726 222 613 b 322 756 319 613 322 725 b 271 899 322 786 319 899 m 919 -10 b 701 292 746 -10 701 147 b 919 593 701 436 746 593 b 1138 292 1093 593 1138 436 b 919 -10 1138 147 1093 -10 m 919 149 b 971 292 968 149 971 261 b 919 435 971 322 968 435 b 868 292 869 435 868 324 b 919 149 868 263 871 149 m 1442 -10 b 1224 292 1268 -10 1224 147 b 1442 593 1224 436 1268 593 b 1660 292 1615 593 1660 436 b 1442 -10 1660 147 1615 -10 m 1442 149 b 1493 292 1490 149 1493 261 b 1442 435 1493 322 1490 435 b 1390 292 1392 435 1390 324 b 1442 149 1390 263 1393 149 "},"¿":{"ha":631,"x_min":0,"x_max":0,"o":"m 413 374 l 413 115 b 378 119 400 118 389 119 b 257 -46 283 119 257 29 b 331 -182 257 -90 267 -182 b 399 -82 382 -182 399 -125 l 399 -57 l 594 -57 b 328 -362 601 -233 514 -362 b 36 -50 143 -362 36 -228 b 206 238 36 64 83 206 l 206 374 m 308 719 b 442 588 382 719 442 660 b 308 456 442 515 382 456 b 178 588 238 456 178 515 b 308 719 178 660 238 719 "},"`":{"ha":417,"x_min":0,"x_max":0,"o":"m 346 847 l 250 792 l 71 983 l 213 1047 "},"´":{"ha":417,"x_min":0,"x_max":0,"o":"m 346 983 l 167 792 l 71 847 l 204 1047 "},"ˆ":{"ha":417,"x_min":0,"x_max":0,"o":"m 410 871 l 325 785 l 207 882 l 85 785 l 8 882 l 207 1039 "},"˜":{"ha":417,"x_min":0,"x_max":0,"o":"m 435 1021 b 296 836 421 938 400 836 b 188 867 258 836 222 851 b 129 885 168 875 151 885 b 85 840 101 885 89 865 l -17 840 b 114 1025 -8 924 10 1025 b 281 972 188 1025 229 972 b 331 1028 317 972 328 997 "},"¯":{"ha":417,"x_min":0,"x_max":0,"o":"m -32 925 l -32 1028 l 449 1028 l 449 925 "},"˘":{"ha":417,"x_min":0,"x_max":0,"o":"m 442 1083 b 208 882 425 953 339 882 b -25 1083 58 882 -28 967 l 65 1083 b 201 986 72 1017 128 986 b 351 1083 300 986 342 1017 "},"˙":{"ha":417,"x_min":0,"x_max":0,"o":"m 313 915 b 208 814 313 860 265 814 b 106 915 153 814 106 860 b 211 1021 106 974 151 1021 b 313 915 268 1021 313 972 "},"¨":{"ha":417,"x_min":0,"x_max":0,"o":"m 168 915 b 64 814 168 860 121 814 b -39 915 8 814 -39 860 b 67 1021 -39 974 7 1021 b 168 915 124 1021 168 972 m 457 915 b 353 814 457 860 410 814 b 250 915 297 814 250 860 b 356 1021 250 974 296 1021 b 457 915 413 1021 457 972 "},"˚":{"ha":417,"x_min":0,"x_max":0,"o":"m 210 763 b 58 914 126 763 58 829 b 211 1064 58 999 126 1064 b 358 911 294 1064 358 993 b 210 763 358 831 292 763 m 210 854 b 267 911 240 854 267 881 b 210 972 267 944 242 972 b 150 913 176 972 150 947 b 210 854 150 879 176 854 "},"¸":{"ha":417,"x_min":0,"x_max":0,"o":"m 325 -117 l 179 -303 l 92 -258 l 200 -67 "},"˝":{"ha":417,"x_min":0,"x_max":0,"o":"m 217 983 l 38 792 l -58 847 l 75 1047 m 475 983 l 296 792 l 200 847 l 333 1047 "},"˛":{"ha":417,"x_min":0,"x_max":0,"o":"m 338 -264 b 235 -285 321 -272 278 -285 b 74 -147 150 -285 74 -242 b 189 0 74 -81 139 -35 l 283 0 l 283 -3 b 196 -108 240 -25 196 -71 b 260 -169 196 -143 225 -169 b 338 -144 285 -169 314 -153 "},"ˇ":{"ha":417,"x_min":0,"x_max":0,"o":"m 8 953 l 93 1039 l 211 942 l 333 1039 l 410 942 l 211 785 "},"—":{"ha":1389,"x_min":0,"x_max":0,"o":"m 1208 551 l 1208 367 l 181 367 l 181 551 "},"Æ":{"ha":936,"x_min":0,"x_max":0,"o":"m 389 538 l 354 776 l 351 776 l 283 339 l 432 339 m 467 175 l 249 175 l 217 0 l 11 0 l 249 1047 l 675 1047 l 719 853 l 513 853 l 567 636 l 774 636 l 821 442 l 617 442 l 675 194 l 876 194 l 925 0 l 506 0 "},"ª":{"ha":417,"x_min":0,"x_max":0,"o":"m 376 1056 l 376 635 l 247 635 l 247 682 l 244 682 b 163 626 229 650 204 626 b 39 846 63 626 39 771 b 161 1064 39 918 54 1064 b 246 1004 204 1064 232 1038 l 247 1004 l 247 1056 m 211 958 b 167 847 169 958 167 871 b 214 732 167 821 168 732 b 258 847 254 732 258 825 b 211 958 258 871 256 958 "},"Ł":{"ha":518,"x_min":0,"x_max":0,"o":"m 281 1047 l 281 700 l 392 778 l 392 625 l 281 544 l 281 194 l 497 194 l 497 0 l 74 0 l 74 400 l 0 344 l 0 511 l 74 567 l 74 1047 "},"Ø":{"ha":808,"x_min":0,"x_max":0,"o":"m 257 531 l 265 382 l 268 382 l 514 785 b 406 872 493 831 461 872 b 257 531 264 872 257 621 m 547 650 l 544 650 l 301 254 b 408 175 322 211 360 175 b 551 501 536 175 551 413 m 769 1008 l 696 890 b 772 519 758 785 772 640 b 406 -17 772 83 547 -17 b 181 71 322 -17 243 19 l 129 -10 l 49 42 l 118 150 b 36 526 50 261 36 399 b 411 1064 36 768 117 1064 b 635 969 494 1064 576 1028 l 690 1056 "},"Œ":{"ha":1035,"x_min":0,"x_max":0,"o":"m 551 79 l 549 79 b 367 -17 508 19 442 -17 b 36 515 96 -17 36 303 b 379 1064 36 736 96 1064 b 549 989 444 1064 510 1039 l 551 989 l 551 1047 l 981 1047 l 981 853 l 757 853 l 757 633 l 957 633 l 957 439 l 757 439 l 757 194 l 982 194 l 982 0 l 551 0 m 550 525 b 407 878 550 621 549 878 b 257 525 267 878 257 621 b 407 169 257 431 268 169 b 550 525 547 169 550 429 "},"º":{"ha":417,"x_min":0,"x_max":0,"o":"m 208 1064 b 382 844 344 1064 382 953 b 208 626 382 739 344 626 b 35 844 72 626 35 739 b 208 1064 35 953 72 1064 m 208 958 b 163 844 164 958 163 869 b 208 732 163 824 165 732 b 254 844 251 732 254 824 b 208 958 254 869 253 958 "},"æ":{"ha":889,"x_min":0,"x_max":0,"o":"m 683 419 l 683 436 b 613 565 683 482 674 565 b 540 440 553 565 540 485 l 540 419 m 539 299 b 613 136 540 247 538 136 b 675 217 663 136 675 175 l 842 217 b 619 -14 825 88 763 -14 b 444 72 546 -14 485 15 b 265 -14 394 18 342 -14 b 36 210 128 -14 36 71 b 246 421 36 332 122 421 b 350 396 279 421 322 417 b 235 554 351 485 342 554 b 97 518 186 554 142 539 l 97 686 b 257 715 149 704 201 715 b 450 613 340 715 411 692 b 615 715 485 681 543 715 b 853 379 744 715 864 600 l 849 299 m 288 131 b 363 206 329 131 363 164 b 289 279 363 246 328 279 b 215 208 250 279 215 247 b 288 131 215 168 244 131 "},"ı":{"ha":290,"x_min":0,"x_max":0,"o":"m 243 701 l 243 0 l 47 0 l 47 701 "},"ł":{"ha":292,"x_min":0,"x_max":0,"o":"m 49 467 l -42 396 l -42 533 l 49 604 l 49 1121 l 244 1121 l 244 742 l 333 814 l 333 679 l 244 606 l 244 0 l 49 0 "},"ø":{"ha":606,"x_min":0,"x_max":0,"o":"m 232 354 b 306 163 232 311 236 163 b 374 349 368 163 374 313 b 300 539 374 392 369 539 b 232 354 236 539 232 392 m 488 731 l 558 686 l 508 606 b 569 350 554 524 569 436 b 307 -14 569 179 508 -14 b 153 36 247 -14 200 1 l 115 -25 l 43 22 l 93 106 b 36 357 53 178 36 274 b 301 715 36 518 99 715 b 450 669 351 715 410 703 "},"œ":{"ha":907,"x_min":0,"x_max":0,"o":"m 701 419 l 701 436 b 631 565 701 482 692 565 b 558 440 571 565 558 485 l 558 419 m 638 -14 b 444 63 557 -14 492 14 b 288 -14 407 11 350 -14 b 36 350 103 -14 36 176 b 288 715 36 524 103 715 b 458 646 365 715 419 690 b 633 715 507 693 550 715 b 871 379 763 715 882 600 l 867 299 l 557 299 b 631 136 558 247 556 136 b 693 217 681 136 693 175 l 860 217 b 638 -14 843 88 781 -14 m 371 354 b 303 543 371 393 368 543 b 232 350 235 543 232 390 b 303 158 232 310 235 158 b 371 354 367 158 371 317 "},"ß":{"ha":664,"x_min":0,"x_max":0,"o":"m 99 774 b 354 1135 99 878 72 1135 b 606 849 546 1135 606 996 b 499 628 606 760 590 664 b 628 343 604 571 628 453 b 400 -10 628 185 600 -10 b 339 -1 379 -10 360 -6 l 339 175 b 415 356 421 172 415 301 b 339 536 415 408 414 533 l 339 713 b 400 826 404 719 400 778 b 344 958 400 863 400 958 b 294 818 282 958 294 857 l 294 0 l 99 0 l 99 540 l 26 540 l 26 701 l 99 701 "},"¹":{"ha":408,"x_min":0,"x_max":0,"o":"m 286 1047 l 286 425 l 144 425 l 144 939 l 79 939 l 79 1047 "},"¬":{"ha":681,"x_min":0,"x_max":0,"o":"m 500 414 l 29 414 l 29 567 l 653 567 l 653 156 l 500 156 "},"µ":{"ha":588,"x_min":0,"x_max":0,"o":"m 540 701 l 540 249 b 408 -14 540 147 553 -14 b 246 108 332 -14 272 42 l 243 108 l 243 -346 l 47 -346 l 47 701 l 243 701 l 243 264 b 296 183 243 229 251 183 b 344 317 358 183 344 281 l 344 701 "},"™":{"ha":1111,"x_min":0,"x_max":0,"o":"m 1075 486 l 964 486 l 964 939 l 961 939 l 815 486 l 750 486 l 604 939 l 601 939 l 601 486 l 490 486 l 490 1047 l 669 1047 l 782 715 l 785 715 l 896 1047 l 1075 1047 m 431 939 l 271 939 l 271 486 l 160 486 l 160 939 l 1 939 l 1 1047 l 431 1047 "},"Ð":{"ha":736,"x_min":0,"x_max":0,"o":"m 74 0 l 74 431 l 0 431 l 0 624 l 74 624 l 74 1047 l 231 1047 b 700 515 267 1047 700 1100 b 258 0 700 217 585 0 m 493 517 b 281 861 493 650 451 861 l 281 625 l 354 625 l 354 431 l 281 431 l 281 186 b 493 517 447 178 493 386 "},"½":{"ha":1021,"x_min":0,"x_max":0,"o":"m 761 1047 l 263 0 l 142 0 l 642 1047 m 285 1047 l 285 425 l 143 425 l 143 939 l 78 939 l 78 1047 m 574 0 l 726 253 b 814 467 761 313 814 399 b 764 539 814 500 803 539 b 714 443 717 539 714 478 l 715 403 l 583 403 l 581 438 b 764 632 581 549 617 632 b 950 471 885 632 950 579 b 894 300 950 407 926 357 l 776 114 l 939 114 l 939 0 "},"±":{"ha":681,"x_min":0,"x_max":0,"o":"m 264 733 l 417 733 l 417 547 l 653 547 l 653 394 l 417 394 l 417 208 l 264 208 l 264 394 l 29 394 l 29 547 l 264 547 m 29 153 l 653 153 l 653 0 l 29 0 "},"Þ":{"ha":676,"x_min":0,"x_max":0,"o":"m 74 0 l 74 1047 l 281 1047 l 281 853 b 644 543 333 853 644 881 b 326 235 644 347 518 235 l 281 238 l 281 0 m 281 406 b 438 546 381 401 438 439 b 319 682 438 621 408 682 l 281 682 "},"¼":{"ha":1021,"x_min":0,"x_max":0,"o":"m 281 1047 l 281 425 l 139 425 l 139 939 l 74 939 l 74 1047 m 763 147 l 561 147 l 561 244 l 742 622 l 904 622 l 904 258 l 957 258 l 957 147 l 904 147 l 904 0 l 763 0 m 763 486 l 760 486 l 663 258 l 763 258 m 799 1047 l 300 0 l 179 0 l 679 1047 "},"÷":{"ha":681,"x_min":0,"x_max":0,"o":"m 29 432 l 653 432 l 653 279 l 29 279 m 251 533 l 251 693 l 428 693 l 428 533 m 251 18 l 251 178 l 428 178 l 428 18 "},"¦":{"ha":347,"x_min":0,"x_max":0,"o":"m 250 918 l 250 571 l 97 571 l 97 918 m 250 224 l 250 -124 l 97 -124 l 97 224 "},"°":{"ha":556,"x_min":0,"x_max":0,"o":"m 278 1064 b 486 856 392 1064 486 969 b 278 647 486 740 392 647 b 69 856 163 647 69 740 b 278 1064 68 969 163 1064 m 278 954 b 179 856 224 954 178 910 b 279 757 179 800 224 757 b 376 856 333 757 376 800 b 278 954 376 910 333 954 "},"þ":{"ha":601,"x_min":0,"x_max":0,"o":"m 244 615 l 247 615 b 378 715 269 672 314 715 b 565 351 543 715 565 472 b 376 -14 565 239 536 -14 b 247 79 313 -14 272 26 l 244 79 l 244 -346 l 49 -346 l 49 982 l 244 982 m 299 165 b 369 354 368 165 369 310 b 300 542 369 394 364 542 b 231 354 233 542 231 393 b 299 165 231 317 235 165 "},"¾":{"ha":1021,"x_min":0,"x_max":0,"o":"m 788 0 l 788 147 l 586 147 l 586 244 l 767 622 l 929 622 l 929 258 l 982 258 l 982 147 l 929 147 l 929 0 m 788 481 l 785 481 l 688 256 l 788 256 m 858 1047 l 360 0 l 239 0 l 739 1047 m 175 572 b 221 513 175 543 189 513 b 275 613 272 513 275 575 b 178 697 275 679 249 700 l 178 803 b 276 885 247 803 276 817 b 235 953 276 913 269 953 b 193 883 200 953 193 911 l 193 871 l 68 871 b 232 1057 65 981 110 1057 b 408 893 346 1057 408 992 b 325 747 408 835 390 771 l 325 744 b 429 600 400 728 429 664 b 224 415 429 485 353 415 b 40 590 104 415 35 485 l 175 590 "},"²":{"ha":408,"x_min":0,"x_max":0,"o":"m 33 828 l 31 863 b 214 1057 31 974 67 1057 b 400 896 335 1057 400 1004 b 344 725 400 832 376 782 l 226 539 l 389 539 l 389 425 l 24 425 l 176 678 b 264 892 211 738 264 824 b 214 964 264 925 253 964 b 164 868 167 964 164 903 l 165 828 "},"®":{"ha":1153,"x_min":0,"x_max":0,"o":"m 578 -17 b 31 526 275 -17 31 225 b 578 1064 31 825 275 1064 b 1122 526 879 1064 1122 825 b 578 -17 1122 225 879 -17 m 578 85 b 1014 526 819 86 1014 283 b 578 963 1014 767 819 963 b 139 526 332 963 139 767 b 578 85 139 283 332 86 m 849 232 l 714 232 l 583 482 l 468 482 l 468 232 l 353 232 l 353 822 l 638 822 b 797 793 688 822 753 821 b 867 640 850 758 867 701 b 706 482 867 533 810 489 m 640 569 b 751 658 706 568 751 583 b 611 735 751 735 668 735 l 468 735 l 468 569 "},"−":{"ha":681,"x_min":0,"x_max":0,"o":"m 29 432 l 653 432 l 653 279 l 29 279 "},"ð":{"ha":606,"x_min":0,"x_max":0,"o":"m 232 350 b 303 161 232 310 235 161 b 374 350 371 161 374 310 b 303 539 374 390 371 539 b 232 350 235 539 232 390 m 68 886 l 182 946 b 94 1065 154 990 125 1029 l 239 1139 b 328 1024 269 1104 299 1065 l 447 1086 l 501 1003 l 382 940 b 569 350 490 765 569 554 b 303 -15 569 183 513 -15 b 36 350 93 -15 36 171 b 292 706 36 522 89 706 b 328 700 301 706 314 704 b 235 863 296 757 265 813 l 115 800 "},"×":{"ha":681,"x_min":0,"x_max":0,"o":"m 338 247 l 138 47 l 29 156 l 229 356 l 29 556 l 138 664 l 338 464 l 544 671 l 653 563 l 446 356 l 653 149 l 544 40 "},"³":{"ha":408,"x_min":0,"x_max":0,"o":"m 143 572 b 189 513 143 543 157 513 b 243 613 240 513 243 575 b 146 697 243 679 217 700 l 146 803 b 244 885 215 803 244 817 b 203 953 244 913 238 953 b 161 883 168 953 161 911 l 161 871 l 36 871 b 200 1057 33 981 78 1057 b 376 893 314 1057 376 992 b 293 747 376 835 358 771 l 293 744 b 397 600 368 728 397 664 b 192 415 397 485 321 415 b 8 590 72 415 3 485 l 143 590 "},"©":{"ha":1153,"x_min":0,"x_max":0,"o":"m 578 -17 b 31 526 275 -17 31 225 b 578 1064 31 825 275 1064 b 1122 526 879 1064 1122 825 b 578 -17 1122 225 879 -17 m 578 85 b 1014 526 819 86 1014 283 b 578 963 1014 767 819 963 b 139 526 332 963 139 767 b 578 85 139 283 332 86 m 856 429 b 600 218 840 299 728 218 b 299 531 418 218 299 356 b 597 842 299 710 413 842 b 856 636 729 842 832 765 l 732 636 b 596 742 719 704 665 742 b 421 533 479 742 421 640 b 600 318 421 431 486 318 b 732 429 667 318 728 363 "},"Á":{"ha":733,"x_min":0,"x_max":0,"o":"m 472 1047 l 724 0 l 503 0 l 464 176 l 254 176 l 217 0 l 11 0 l 254 1047 m 381 619 l 357 778 l 354 778 l 332 619 l 288 340 l 433 340 m 525 1294 l 346 1103 l 250 1158 l 383 1358 "},"Â":{"ha":733,"x_min":0,"x_max":0,"o":"m 472 1047 l 724 0 l 503 0 l 464 176 l 254 176 l 217 0 l 11 0 l 254 1047 m 381 619 l 357 778 l 354 778 l 332 619 l 288 340 l 433 340 m 568 1182 l 483 1096 l 365 1193 l 243 1096 l 167 1193 l 365 1350 "},"Ä":{"ha":733,"x_min":0,"x_max":0,"o":"m 472 1047 l 724 0 l 503 0 l 464 176 l 254 176 l 217 0 l 11 0 l 254 1047 m 381 619 l 357 778 l 354 778 l 332 619 l 288 340 l 433 340 m 326 1226 b 222 1125 326 1171 279 1125 b 119 1226 167 1125 119 1171 b 225 1332 119 1285 165 1332 b 326 1226 282 1332 326 1283 m 615 1226 b 511 1125 615 1171 568 1125 b 408 1226 456 1125 408 1171 b 514 1332 408 1285 454 1332 b 615 1226 571 1332 615 1283 "},"À":{"ha":733,"x_min":0,"x_max":0,"o":"m 472 1047 l 724 0 l 503 0 l 464 176 l 254 176 l 217 0 l 11 0 l 254 1047 m 381 619 l 357 778 l 354 778 l 332 619 l 288 340 l 433 340 m 483 1158 l 388 1103 l 208 1294 l 350 1358 "},"Å":{"ha":733,"x_min":0,"x_max":0,"o":"m 472 1047 l 724 0 l 503 0 l 464 176 l 254 176 l 217 0 l 11 0 l 254 1047 m 381 619 l 357 778 l 354 778 l 332 619 l 288 340 l 433 340 m 360 1074 b 208 1225 276 1074 208 1140 b 361 1375 208 1310 276 1375 b 508 1222 444 1375 508 1304 b 360 1074 508 1142 442 1074 m 360 1165 b 417 1222 390 1165 417 1192 b 360 1283 417 1256 392 1283 b 300 1224 326 1283 300 1258 b 360 1165 300 1190 326 1165 "},"Ã":{"ha":733,"x_min":0,"x_max":0,"o":"m 472 1047 l 724 0 l 503 0 l 464 176 l 254 176 l 217 0 l 11 0 l 254 1047 m 381 619 l 357 778 l 354 778 l 332 619 l 288 340 l 433 340 m 593 1332 b 454 1147 579 1249 558 1147 b 346 1178 417 1147 381 1163 b 288 1196 326 1186 310 1196 b 243 1151 260 1196 247 1176 l 142 1151 b 272 1336 150 1235 168 1336 b 439 1283 346 1336 388 1283 b 489 1339 475 1283 486 1308 "},"Ç":{"ha":628,"x_min":0,"x_max":0,"o":"m 596 850 b 518 861 569 857 544 861 b 257 535 336 861 257 696 b 517 188 257 379 336 188 b 596 203 543 188 569 194 l 596 7 b 500 -11 565 -6 533 -11 b 36 533 201 -11 36 258 b 490 1060 36 793 208 1060 b 596 1040 526 1060 561 1053 m 472 -117 l 326 -303 l 239 -258 l 347 -67 "},"É":{"ha":544,"x_min":0,"x_max":0,"o":"m 490 1047 l 490 853 l 281 853 l 281 625 l 465 625 l 465 431 l 281 431 l 281 194 l 493 194 l 493 0 l 74 0 l 74 1047 m 458 1294 l 279 1103 l 183 1158 l 317 1358 "},"Ê":{"ha":544,"x_min":0,"x_max":0,"o":"m 490 1047 l 490 853 l 281 853 l 281 625 l 465 625 l 465 431 l 281 431 l 281 194 l 493 194 l 493 0 l 74 0 l 74 1047 m 474 1182 l 389 1096 l 271 1193 l 149 1096 l 72 1193 l 271 1350 "},"Ë":{"ha":544,"x_min":0,"x_max":0,"o":"m 490 1047 l 490 853 l 281 853 l 281 625 l 465 625 l 465 431 l 281 431 l 281 194 l 493 194 l 493 0 l 74 0 l 74 1047 m 232 1226 b 128 1125 232 1171 185 1125 b 25 1226 72 1125 25 1171 b 131 1332 25 1285 71 1332 b 232 1226 188 1332 232 1283 m 521 1226 b 417 1125 521 1171 474 1125 b 314 1226 361 1125 314 1171 b 419 1332 314 1285 360 1332 b 521 1226 476 1332 521 1283 "},"È":{"ha":544,"x_min":0,"x_max":0,"o":"m 490 1047 l 490 853 l 281 853 l 281 625 l 465 625 l 465 431 l 281 431 l 281 194 l 493 194 l 493 0 l 74 0 l 74 1047 m 389 1158 l 293 1103 l 114 1294 l 256 1358 "},"Í":{"ha":354,"x_min":0,"x_max":0,"o":"m 281 1047 l 281 0 l 74 0 l 74 1047 m 343 1294 l 164 1103 l 68 1158 l 201 1358 "},"Î":{"ha":354,"x_min":0,"x_max":0,"o":"m 281 1047 l 281 0 l 74 0 l 74 1047 m 379 1182 l 294 1096 l 176 1193 l 54 1096 l -22 1193 l 176 1350 "},"Ï":{"ha":354,"x_min":0,"x_max":0,"o":"m 281 1047 l 281 0 l 74 0 l 74 1047 m 138 1226 b 33 1125 138 1171 90 1125 b -69 1226 -22 1125 -69 1171 b 36 1332 -69 1285 -24 1332 b 138 1226 93 1332 138 1283 m 426 1226 b 322 1125 426 1171 379 1125 b 219 1226 267 1125 219 1171 b 325 1332 219 1285 265 1332 b 426 1226 382 1332 426 1283 "},"Ì":{"ha":354,"x_min":0,"x_max":0,"o":"m 281 1047 l 281 0 l 74 0 l 74 1047 m 288 1158 l 192 1103 l 13 1294 l 154 1358 "},"Ñ":{"ha":796,"x_min":0,"x_max":0,"o":"m 272 1047 l 531 415 l 533 418 b 517 576 521 468 517 522 l 517 1047 l 724 1047 l 724 0 l 528 0 l 272 632 l 269 629 l 279 524 l 281 481 l 281 0 l 74 0 l 74 1047 m 625 1332 b 486 1147 611 1249 590 1147 b 378 1178 449 1147 413 1163 b 319 1196 358 1186 342 1196 b 275 1151 292 1196 279 1176 l 174 1151 b 304 1336 182 1235 200 1336 b 471 1283 378 1336 419 1283 b 521 1339 507 1283 518 1308 "},"Ó":{"ha":808,"x_min":0,"x_max":0,"o":"m 404 1064 b 772 524 589 1064 772 917 b 404 -17 772 131 589 -17 b 36 524 219 -17 36 131 b 404 1064 36 917 219 1064 m 257 524 b 404 175 257 440 267 175 b 551 524 542 175 551 440 b 404 872 551 617 542 872 b 257 524 267 872 257 617 m 590 1294 l 411 1103 l 315 1158 l 449 1358 "},"Ô":{"ha":808,"x_min":0,"x_max":0,"o":"m 404 1064 b 772 524 589 1064 772 917 b 404 -17 772 131 589 -17 b 36 524 219 -17 36 131 b 404 1064 36 917 219 1064 m 257 524 b 404 175 257 440 267 175 b 551 524 542 175 551 440 b 404 872 551 617 542 872 b 257 524 267 872 257 617 m 606 1182 l 521 1096 l 403 1193 l 281 1096 l 204 1193 l 403 1350 "},"Ö":{"ha":808,"x_min":0,"x_max":0,"o":"m 404 1064 b 772 524 589 1064 772 917 b 404 -17 772 131 589 -17 b 36 524 219 -17 36 131 b 404 1064 36 917 219 1064 m 257 524 b 404 175 257 440 267 175 b 551 524 542 175 551 440 b 404 872 551 617 542 872 b 257 524 267 872 257 617 m 364 1226 b 260 1125 364 1171 317 1125 b 157 1226 204 1125 157 1171 b 263 1332 157 1285 203 1332 b 364 1226 319 1332 364 1283 m 653 1226 b 549 1125 653 1171 606 1125 b 446 1226 493 1125 446 1171 b 551 1332 446 1285 492 1332 b 653 1226 608 1332 653 1283 "},"Ò":{"ha":808,"x_min":0,"x_max":0,"o":"m 404 1064 b 772 524 589 1064 772 917 b 404 -17 772 131 589 -17 b 36 524 219 -17 36 131 b 404 1064 36 917 219 1064 m 257 524 b 404 175 257 440 267 175 b 551 524 542 175 551 440 b 404 872 551 617 542 872 b 257 524 267 872 257 617 m 507 1158 l 411 1103 l 232 1294 l 374 1358 "},"Õ":{"ha":808,"x_min":0,"x_max":0,"o":"m 404 1064 b 772 524 589 1064 772 917 b 404 -17 772 131 589 -17 b 36 524 219 -17 36 131 b 404 1064 36 917 219 1064 m 257 524 b 404 175 257 440 267 175 b 551 524 542 175 551 440 b 404 872 551 617 542 872 b 257 524 267 872 257 617 m 631 1332 b 492 1147 617 1249 596 1147 b 383 1178 454 1147 418 1163 b 325 1196 364 1186 347 1196 b 281 1151 297 1196 285 1176 l 179 1151 b 310 1336 188 1235 206 1336 b 476 1283 383 1336 425 1283 b 526 1339 513 1283 524 1308 "},"Š":{"ha":611,"x_min":0,"x_max":0,"o":"m 504 811 b 354 878 463 847 411 878 b 250 775 290 878 250 839 b 565 310 250 603 565 593 b 264 -17 565 124 458 -17 b 86 36 206 -17 133 1 l 86 233 b 243 178 135 200 182 178 b 363 292 310 178 363 222 b 240 444 363 372 299 403 b 47 756 121 525 47 603 b 321 1064 47 921 143 1064 b 504 1013 388 1064 447 1046 m 106 1264 l 190 1350 l 308 1253 l 431 1350 l 507 1253 l 308 1096 "},"Ú":{"ha":756,"x_min":0,"x_max":0,"o":"m 275 1047 l 275 369 b 378 171 275 290 265 171 b 481 325 479 171 479 247 l 481 1047 l 688 1047 l 688 283 b 376 -17 688 172 675 -17 b 68 269 183 -17 68 74 l 68 1047 m 564 1294 l 385 1103 l 289 1158 l 422 1358 "},"Û":{"ha":756,"x_min":0,"x_max":0,"o":"m 275 1047 l 275 369 b 378 171 275 290 265 171 b 481 325 479 171 479 247 l 481 1047 l 688 1047 l 688 283 b 376 -17 688 172 675 -17 b 68 269 183 -17 68 74 l 68 1047 m 579 1182 l 494 1096 l 376 1193 l 254 1096 l 178 1193 l 376 1350 "},"Ü":{"ha":756,"x_min":0,"x_max":0,"o":"m 275 1047 l 275 369 b 378 171 275 290 265 171 b 481 325 479 171 479 247 l 481 1047 l 688 1047 l 688 283 b 376 -17 688 172 675 -17 b 68 269 183 -17 68 74 l 68 1047 m 338 1226 b 233 1125 338 1171 290 1125 b 131 1226 178 1125 131 1171 b 236 1332 131 1285 176 1332 b 338 1226 293 1332 338 1283 m 626 1226 b 522 1125 626 1171 579 1125 b 419 1226 467 1125 419 1171 b 525 1332 419 1285 465 1332 b 626 1226 582 1332 626 1283 "},"Ù":{"ha":756,"x_min":0,"x_max":0,"o":"m 275 1047 l 275 369 b 378 171 275 290 265 171 b 481 325 479 171 479 247 l 481 1047 l 688 1047 l 688 283 b 376 -17 688 172 675 -17 b 68 269 183 -17 68 74 l 68 1047 m 467 1158 l 371 1103 l 192 1294 l 333 1358 "},"Ý":{"ha":714,"x_min":0,"x_max":0,"o":"m 233 1047 l 342 763 l 357 711 l 360 711 l 383 789 l 476 1047 l 708 1047 l 464 501 l 464 0 l 257 0 l 257 501 l 6 1047 m 564 1294 l 385 1103 l 289 1158 l 422 1358 "},"Ÿ":{"ha":714,"x_min":0,"x_max":0,"o":"m 233 1047 l 342 763 l 357 711 l 360 711 l 383 789 l 476 1047 l 708 1047 l 464 501 l 464 0 l 257 0 l 257 501 l 6 1047 m 325 1226 b 221 1125 325 1171 278 1125 b 118 1226 165 1125 118 1171 b 224 1332 118 1285 164 1332 b 325 1226 281 1332 325 1283 m 614 1226 b 510 1125 614 1171 567 1125 b 407 1226 454 1125 407 1171 b 513 1332 407 1285 453 1332 b 614 1226 569 1332 614 1283 "},"Ž":{"ha":706,"x_min":0,"x_max":0,"o":"m 685 1047 l 326 194 l 656 194 l 656 0 l 25 0 l 374 853 l 69 853 l 69 1047 m 153 1264 l 238 1350 l 356 1253 l 478 1350 l 554 1253 l 356 1096 "},"á":{"ha":601,"x_min":0,"x_max":0,"o":"m 304 165 b 372 354 367 165 372 317 b 301 542 372 393 368 542 b 232 354 236 542 232 394 b 304 165 232 310 235 165 m 358 79 l 356 79 b 226 -14 329 26 289 -14 b 36 351 68 -14 36 239 b 224 715 36 472 60 715 b 356 615 289 715 333 672 l 358 615 l 358 701 l 554 701 l 554 0 l 358 0 m 494 983 l 315 792 l 219 847 l 353 1047 "},"â":{"ha":601,"x_min":0,"x_max":0,"o":"m 304 165 b 372 354 367 165 372 317 b 301 542 372 393 368 542 b 232 354 236 542 232 394 b 304 165 232 310 235 165 m 358 79 l 356 79 b 226 -14 329 26 289 -14 b 36 351 68 -14 36 239 b 224 715 36 472 60 715 b 356 615 289 715 333 672 l 358 615 l 358 701 l 554 701 l 554 0 l 358 0 m 517 871 l 432 785 l 314 882 l 192 785 l 115 882 l 314 1039 "},"ä":{"ha":601,"x_min":0,"x_max":0,"o":"m 304 165 b 372 354 367 165 372 317 b 301 542 372 393 368 542 b 232 354 236 542 232 394 b 304 165 232 310 235 165 m 358 79 l 356 79 b 226 -14 329 26 289 -14 b 36 351 68 -14 36 239 b 224 715 36 472 60 715 b 356 615 289 715 333 672 l 358 615 l 358 701 l 554 701 l 554 0 l 358 0 m 272 915 b 168 814 272 860 225 814 b 65 915 113 814 65 860 b 171 1021 65 974 111 1021 b 272 915 228 1021 272 972 m 561 915 b 457 814 561 860 514 814 b 354 915 401 814 354 860 b 460 1021 354 974 400 1021 b 561 915 517 1021 561 972 "},"à":{"ha":601,"x_min":0,"x_max":0,"o":"m 304 165 b 372 354 367 165 372 317 b 301 542 372 393 368 542 b 232 354 236 542 232 394 b 304 165 232 310 235 165 m 358 79 l 356 79 b 226 -14 329 26 289 -14 b 36 351 68 -14 36 239 b 224 715 36 472 60 715 b 356 615 289 715 333 672 l 358 615 l 358 701 l 554 701 l 554 0 l 358 0 m 404 847 l 308 792 l 129 983 l 271 1047 "},"å":{"ha":601,"x_min":0,"x_max":0,"o":"m 304 165 b 372 354 367 165 372 317 b 301 542 372 393 368 542 b 232 354 236 542 232 394 b 304 165 232 310 235 165 m 358 79 l 356 79 b 226 -14 329 26 289 -14 b 36 351 68 -14 36 239 b 224 715 36 472 60 715 b 356 615 289 715 333 672 l 358 615 l 358 701 l 554 701 l 554 0 l 358 0 m 314 763 b 163 914 231 763 163 829 b 315 1064 163 999 231 1064 b 463 911 399 1064 463 993 b 314 763 463 831 396 763 m 314 854 b 371 911 344 854 371 881 b 314 972 371 944 346 972 b 254 913 281 972 254 947 b 314 854 254 879 281 854 "},"ã":{"ha":601,"x_min":0,"x_max":0,"o":"m 304 165 b 372 354 367 165 372 317 b 301 542 372 393 368 542 b 232 354 236 542 232 394 b 304 165 232 310 235 165 m 358 79 l 356 79 b 226 -14 329 26 289 -14 b 36 351 68 -14 36 239 b 224 715 36 472 60 715 b 356 615 289 715 333 672 l 358 615 l 358 701 l 554 701 l 554 0 l 358 0 m 539 1021 b 400 836 525 938 504 836 b 292 867 363 836 326 851 b 233 885 272 875 256 885 b 189 840 206 885 193 865 l 88 840 b 218 1025 96 924 114 1025 b 385 972 292 1025 333 972 b 435 1028 421 972 432 997 "},"ç":{"ha":438,"x_min":0,"x_max":0,"o":"m 406 11 b 293 -14 369 -6 333 -14 b 36 346 103 -14 36 186 b 308 715 36 522 106 715 b 406 694 343 715 374 708 l 406 522 b 349 544 388 539 372 544 b 232 357 253 544 232 429 b 346 169 232 282 247 169 b 406 190 368 169 388 178 m 350 -117 l 204 -303 l 117 -258 l 225 -67 "},"é":{"ha":575,"x_min":0,"x_max":0,"o":"m 369 436 b 299 565 369 482 360 565 b 226 440 239 565 226 485 l 226 419 l 369 419 m 535 299 l 225 299 b 299 136 226 247 224 136 b 361 217 349 136 361 175 l 528 217 b 306 -14 511 88 449 -14 b 36 336 107 -14 36 163 b 301 715 36 504 97 715 b 539 379 431 715 550 600 m 481 983 l 301 792 l 206 847 l 339 1047 "},"ê":{"ha":575,"x_min":0,"x_max":0,"o":"m 369 436 b 299 565 369 482 360 565 b 226 440 239 565 226 485 l 226 419 l 369 419 m 535 299 l 225 299 b 299 136 226 247 224 136 b 361 217 349 136 361 175 l 528 217 b 306 -14 511 88 449 -14 b 36 336 107 -14 36 163 b 301 715 36 504 97 715 b 539 379 431 715 550 600 m 500 871 l 415 785 l 297 882 l 175 785 l 99 882 l 297 1039 "},"ë":{"ha":575,"x_min":0,"x_max":0,"o":"m 369 436 b 299 565 369 482 360 565 b 226 440 239 565 226 485 l 226 419 l 369 419 m 535 299 l 225 299 b 299 136 226 247 224 136 b 361 217 349 136 361 175 l 528 217 b 306 -14 511 88 449 -14 b 36 336 107 -14 36 163 b 301 715 36 504 97 715 b 539 379 431 715 550 600 m 247 915 b 143 814 247 860 200 814 b 40 915 88 814 40 860 b 146 1021 40 974 86 1021 b 247 915 203 1021 247 972 m 536 915 b 432 814 536 860 489 814 b 329 915 376 814 329 860 b 435 1021 329 974 375 1021 b 536 915 492 1021 536 972 "},"è":{"ha":575,"x_min":0,"x_max":0,"o":"m 369 436 b 299 565 369 482 360 565 b 226 440 239 565 226 485 l 226 419 l 369 419 m 535 299 l 225 299 b 299 136 226 247 224 136 b 361 217 349 136 361 175 l 528 217 b 306 -14 511 88 449 -14 b 36 336 107 -14 36 163 b 301 715 36 504 97 715 b 539 379 431 715 550 600 m 390 847 l 294 792 l 115 983 l 257 1047 "},"í":{"ha":290,"x_min":0,"x_max":0,"o":"m 243 701 l 243 0 l 47 0 l 47 701 m 304 983 l 125 792 l 29 847 l 163 1047 "},"î":{"ha":290,"x_min":0,"x_max":0,"o":"m 243 701 l 243 0 l 47 0 l 47 701 m 347 871 l 263 785 l 144 882 l 22 785 l -54 882 l 144 1039 "},"ï":{"ha":290,"x_min":0,"x_max":0,"o":"m 243 701 l 243 0 l 47 0 l 47 701 m 106 915 b 1 814 106 860 58 814 b -101 915 -54 814 -101 860 b 4 1021 -101 974 -56 1021 b 106 915 61 1021 106 972 m 394 915 b 290 814 394 860 347 814 b 188 915 235 814 188 860 b 293 1021 188 974 233 1021 b 394 915 350 1021 394 972 "},"ì":{"ha":290,"x_min":0,"x_max":0,"o":"m 243 701 l 243 0 l 47 0 l 47 701 m 263 847 l 167 792 l -12 983 l 129 1047 "},"ñ":{"ha":589,"x_min":0,"x_max":0,"o":"m 244 593 l 247 593 b 410 715 274 660 333 715 b 542 453 554 715 542 554 l 542 0 l 346 0 l 346 385 b 297 518 346 421 360 518 b 244 438 253 518 244 472 l 244 0 l 49 0 l 49 701 l 244 701 m 521 1021 b 382 836 507 938 486 836 b 274 867 344 836 308 851 b 215 885 254 875 238 885 b 171 840 188 885 175 865 l 69 840 b 200 1025 78 924 96 1025 b 367 972 274 1025 315 972 b 417 1028 403 972 414 997 "},"ó":{"ha":606,"x_min":0,"x_max":0,"o":"m 303 715 b 569 350 513 715 569 529 b 303 -14 569 171 513 -14 b 36 350 93 -14 36 171 b 303 715 36 529 93 715 m 303 539 b 232 350 235 539 232 390 b 303 161 232 310 235 161 b 374 350 371 161 374 310 b 303 539 374 390 371 539 m 496 983 l 317 792 l 221 847 l 354 1047 "},"ô":{"ha":606,"x_min":0,"x_max":0,"o":"m 303 715 b 569 350 513 715 569 529 b 303 -14 569 171 513 -14 b 36 350 93 -14 36 171 b 303 715 36 529 93 715 m 303 539 b 232 350 235 539 232 390 b 303 161 232 310 235 161 b 374 350 371 161 374 310 b 303 539 374 390 371 539 m 504 871 l 419 785 l 301 882 l 179 785 l 103 882 l 301 1039 "},"ö":{"ha":606,"x_min":0,"x_max":0,"o":"m 303 715 b 569 350 513 715 569 529 b 303 -14 569 171 513 -14 b 36 350 93 -14 36 171 b 303 715 36 529 93 715 m 303 539 b 232 350 235 539 232 390 b 303 161 232 310 235 161 b 374 350 371 161 374 310 b 303 539 374 390 371 539 m 263 915 b 158 814 263 860 215 814 b 56 915 103 814 56 860 b 161 1021 56 974 101 1021 b 263 915 218 1021 263 972 m 551 915 b 447 814 551 860 504 814 b 344 915 392 814 344 860 b 450 1021 344 974 390 1021 b 551 915 507 1021 551 972 "},"ò":{"ha":606,"x_min":0,"x_max":0,"o":"m 303 715 b 569 350 513 715 569 529 b 303 -14 569 171 513 -14 b 36 350 93 -14 36 171 b 303 715 36 529 93 715 m 303 539 b 232 350 235 539 232 390 b 303 161 232 310 235 161 b 374 350 371 161 374 310 b 303 539 374 390 371 539 m 406 847 l 310 792 l 131 983 l 272 1047 "},"õ":{"ha":606,"x_min":0,"x_max":0,"o":"m 303 715 b 569 350 513 715 569 529 b 303 -14 569 171 513 -14 b 36 350 93 -14 36 171 b 303 715 36 529 93 715 m 303 539 b 232 350 235 539 232 390 b 303 161 232 310 235 161 b 374 350 371 161 374 310 b 303 539 374 390 371 539 m 529 1021 b 390 836 515 938 494 836 b 282 867 353 836 317 851 b 224 885 263 875 246 885 b 179 840 196 885 183 865 l 78 840 b 208 1025 86 924 104 1025 b 375 972 282 1025 324 972 b 425 1028 411 972 422 997 "},"š":{"ha":522,"x_min":0,"x_max":0,"o":"m 401 513 b 307 558 374 538 347 558 b 254 507 272 558 254 538 b 478 232 257 425 478 442 b 253 -14 478 93 397 -14 b 42 67 178 -14 100 18 l 128 206 b 225 160 157 181 186 160 b 282 218 256 160 282 182 b 58 510 285 311 58 288 b 293 715 58 643 169 715 b 481 656 364 715 424 697 m 72 953 l 157 1039 l 275 942 l 397 1039 l 474 942 l 275 785 "},"ú":{"ha":588,"x_min":0,"x_max":0,"o":"m 244 701 l 244 317 b 294 169 244 278 229 169 b 343 274 347 169 343 239 l 344 701 l 539 701 l 539 254 b 289 -14 539 92 463 -14 b 49 281 67 -14 49 153 l 49 701 m 488 983 l 308 792 l 213 847 l 346 1047 "},"û":{"ha":588,"x_min":0,"x_max":0,"o":"m 244 701 l 244 317 b 294 169 244 278 229 169 b 343 274 347 169 343 239 l 344 701 l 539 701 l 539 254 b 289 -14 539 92 463 -14 b 49 281 67 -14 49 153 l 49 701 m 496 871 l 411 785 l 293 882 l 171 785 l 94 882 l 293 1039 "},"ü":{"ha":588,"x_min":0,"x_max":0,"o":"m 244 701 l 244 317 b 294 169 244 278 229 169 b 343 274 347 169 343 239 l 344 701 l 539 701 l 539 254 b 289 -14 539 92 463 -14 b 49 281 67 -14 49 153 l 49 701 m 254 915 b 150 814 254 860 207 814 b 47 915 94 814 47 860 b 153 1021 47 974 93 1021 b 254 915 210 1021 254 972 m 543 915 b 439 814 543 860 496 814 b 336 915 383 814 336 860 b 442 1021 336 974 382 1021 b 543 915 499 1021 543 972 "},"ù":{"ha":588,"x_min":0,"x_max":0,"o":"m 244 701 l 244 317 b 294 169 244 278 229 169 b 343 274 347 169 343 239 l 344 701 l 539 701 l 539 254 b 289 -14 539 92 463 -14 b 49 281 67 -14 49 153 l 49 701 m 376 847 l 281 792 l 101 983 l 243 1047 "},"ý":{"ha":628,"x_min":0,"x_max":0,"o":"m 218 701 l 292 418 l 315 301 l 318 301 l 410 701 l 607 701 l 306 -346 l 113 -346 l 225 14 l 21 701 m 521 983 l 342 792 l 246 847 l 379 1047 "},"ÿ":{"ha":628,"x_min":0,"x_max":0,"o":"m 218 701 l 292 418 l 315 301 l 318 301 l 410 701 l 607 701 l 306 -346 l 113 -346 l 225 14 l 21 701 m 274 915 b 169 814 274 860 226 814 b 67 915 114 814 67 860 b 172 1021 67 974 113 1021 b 274 915 229 1021 274 972 m 563 915 b 458 814 563 860 515 814 b 356 915 403 814 356 860 b 461 1021 356 974 401 1021 b 563 915 518 1021 563 972 "},"ž":{"ha":557,"x_min":0,"x_max":0,"o":"m 525 701 l 308 163 l 501 163 l 501 0 l 32 0 l 254 539 l 54 539 l 54 701 m 79 953 l 164 1039 l 282 942 l 404 1039 l 481 942 l 282 785 "},"€":{"ha":681,"x_min":0,"x_max":0,"o":"m 625 825 b 478 881 600 854 553 881 b 317 701 382 881 332 822 l 588 701 l 549 565 l 304 565 b 303 526 304 554 303 539 b 304 479 303 510 304 492 l 522 479 l 483 343 l 318 343 b 479 167 333 222 386 167 b 625 219 550 167 599 192 l 625 28 b 443 -15 601 8 540 -15 b 122 343 263 -15 153 96 l 22 343 l 61 479 l 110 479 b 108 525 108 492 108 507 b 110 565 108 539 108 551 l 22 565 l 61 701 l 119 701 b 443 1064 150 931 250 1064 b 625 1017 533 1064 600 1038 "}}}
